<svg xmlns="http://www.w3.org/2000/svg" viewBox="0 0 1200 1200">
  <defs>
    <linearGradient id="bgGradient" x1="0" y1="0" x2="1" y2="1">
      <stop offset="0%" stop-color="#F86BA8" />
      <stop offset="100%" stop-color="#FF95CB" />
    </linearGradient>
    <linearGradient id="goldGradient" x1="0" y1="0" x2="1" y2="1">
      <stop offset="0%" stop-color="#E5B35B" />
      <stop offset="100%" stop-color="#F7D486" />
    </linearGradient>
    <filter id="shadow" x="-30%" y="-30%" width="160%" height="160%">
      <feDropShadow dx="0" dy="24" stdDeviation="30" flood-color="#000" flood-opacity="0.18" />
    </filter>
  </defs>

  <circle cx="600" cy="600" r="600" fill="#E84C96" />
  <circle cx="600" cy="600" r="520" fill="url(#bgGradient)" filter="url(#shadow)" />
  <circle cx="600" cy="600" r="460" fill="none" stroke="url(#goldGradient)" stroke-width="50" />

  <g transform="translate(600 300)">
    <path d="M-80 40 C-120 20 -150 0 -150 -40 C-150 -80 -120 -100 -80 -100 C-40 -100 -10 -80 0 -40 C10 -80 40 -100 80 -100 C120 -100 150 -80 150 -40 C150 0 120 20 80 40 C40 60 10 80 -20 100" fill="none" stroke="#fff" stroke-width="22" stroke-linecap="round" stroke-linejoin="round" />
    <path d="M-80 40 L-100 120" stroke="#fff" stroke-width="18" stroke-linecap="round" />
    <path d="M80 40 L100 120" stroke="#fff" stroke-width="18" stroke-linecap="round" />
    <path d="M-24 120 L24 120" stroke="#fff" stroke-width="18" stroke-linecap="round" />
    <path d="M-10 -70 C-20 -90 -20 -110 0 -120 C20 -110 20 -90 10 -70" fill="#fff" />
  </g>

  <text x="600" y="670" text-anchor="middle" font-family="Poppins, Arial, sans-serif" font-size="190" font-weight="800" fill="#1D0A12">Tianne</text>
  <text x="600" y="770" text-anchor="middle" font-family="Poppins, Arial, sans-serif" font-size="62" fill="#fff" opacity="0.95">Lanches e confeitaria</text>
</svg>
